<?xml version="1.0" encoding="UTF-8" standalone="no"?>
<svg
   width="125"
   height="144"
   viewBox="0 0 125 144"
   version="1.1"
   id="svg2"
   sodipodi:docname="logo.svg"
   inkscape:version="1.4.2 (f4327f4, 2025-05-13)"
   inkscape:export-filename="ohvbd\man\figures\logo-10.png"
   inkscape:export-xdpi="184.32001"
   inkscape:export-ydpi="184.32001"
   xmlns:inkscape="http://www.inkscape.org/namespaces/inkscape"
   xmlns:sodipodi="http://sodipodi.sourceforge.net/DTD/sodipodi-0.dtd"
   xmlns:xlink="http://www.w3.org/1999/xlink"
   xmlns="http://www.w3.org/2000/svg"
   xmlns:svg="http://www.w3.org/2000/svg">
  <defs
     id="defs2">
    <rect
       x="18.915106"
       y="47.376154"
       width="116.49584"
       height="79.019183"
       id="rect1" />
    <linearGradient
       id="linearGradient39"
       inkscape:collect="always">
      <stop
         style="stop-color:#5bcffb;stop-opacity:1;"
         offset="0"
         id="stop40" />
      <stop
         style="stop-color:#5bcffb;stop-opacity:1;"
         offset="0.19823435"
         id="stop42" />
      <stop
         style="stop-color:#f5abb9;stop-opacity:1;"
         offset="0.19823435"
         id="stop43" />
      <stop
         style="stop-color:#f5abb9;stop-opacity:1;"
         offset="0.40308988"
         id="stop44" />
      <stop
         style="stop-color:#f3f3f3;stop-opacity:1;"
         offset="0.40308988"
         id="stop45" />
      <stop
         style="stop-color:#fceaec;stop-opacity:1;"
         offset="0.60277891"
         id="stop46" />
      <stop
         style="stop-color:#f5abb9;stop-opacity:1;"
         offset="0.60277891"
         id="stop47" />
      <stop
         style="stop-color:#f5abb9;stop-opacity:1;"
         offset="0.79957116"
         id="stop48" />
      <stop
         style="stop-color:#5bcffb;stop-opacity:1;"
         offset="0.79957116"
         id="stop49" />
      <stop
         style="stop-color:#5bcffb;stop-opacity:1;"
         offset="1"
         id="stop41" />
    </linearGradient>
    <linearGradient
       id="linearGradient32"
       inkscape:collect="always">
      <stop
         style="stop-color:#fcf431;stop-opacity:1;"
         offset="0"
         id="stop32" />
      <stop
         style="stop-color:#fcf431;stop-opacity:1;"
         offset="0.24799357"
         id="stop34" />
      <stop
         style="stop-color:#f1f1f1;stop-opacity:1;"
         offset="0.24799357"
         id="stop35" />
      <stop
         style="stop-color:#f1f1f1;stop-opacity:1;"
         offset="0.49999374"
         id="stop36" />
      <stop
         style="stop-color:#9d59d2;stop-opacity:1;"
         offset="0.49999374"
         id="stop37" />
      <stop
         style="stop-color:#9d59d2;stop-opacity:1;"
         offset="0.75366169"
         id="stop38" />
      <stop
         style="stop-color:#282828;stop-opacity:1;"
         offset="0.75366169"
         id="stop39" />
      <stop
         style="stop-color:#282828;stop-opacity:1;"
         offset="1"
         id="stop33" />
    </linearGradient>
    <linearGradient
       id="linearGradient26"
       inkscape:collect="always">
      <stop
         style="stop-color:#d60270;stop-opacity:1;"
         offset="0"
         id="stop26" />
      <stop
         style="stop-color:#d60270;stop-opacity:1;"
         offset="0.3988764"
         id="stop28" />
      <stop
         style="stop-color:#9b4f96;stop-opacity:1;"
         offset="0.3988764"
         id="stop29" />
      <stop
         style="stop-color:#9b4f96;stop-opacity:1;"
         offset="0.60052168"
         id="stop30" />
      <stop
         style="stop-color:#0038a8;stop-opacity:1;"
         offset="0.60052168"
         id="stop31" />
      <stop
         style="stop-color:#0038a8;stop-opacity:1;"
         offset="1"
         id="stop27" />
    </linearGradient>
    <linearGradient
       id="linearGradient12"
       inkscape:collect="always">
      <stop
         style="stop-color:#e40303;stop-opacity:1;"
         offset="0"
         id="stop12" />
      <stop
         style="stop-color:#e40303;stop-opacity:1;"
         offset="0.15707812"
         id="stop14" />
      <stop
         style="stop-color:#ff8c00;stop-opacity:1;"
         offset="0.15707812"
         id="stop22" />
      <stop
         style="stop-color:#ff8c00;stop-opacity:1;"
         offset="0.33390626"
         id="stop18" />
      <stop
         style="stop-color:#ffed00;stop-opacity:1;"
         offset="0.33390626"
         id="stop15" />
      <stop
         style="stop-color:#ffed00;stop-opacity:1;"
         offset="0.49999374"
         id="stop19" />
      <stop
         style="stop-color:#008026;stop-opacity:1;"
         offset="0.49999374"
         id="stop16" />
      <stop
         style="stop-color:#008026;stop-opacity:1;"
         offset="0.66607815"
         id="stop20" />
      <stop
         style="stop-color:#24408e;stop-opacity:1;"
         offset="0.66607815"
         id="stop17" />
      <stop
         style="stop-color:#24408e;stop-opacity:1;"
         offset="0.84290624"
         id="stop21" />
      <stop
         style="stop-color:#732982;stop-opacity:1;"
         offset="0.84290624"
         id="stop23" />
      <stop
         style="stop-color:#732982;stop-opacity:1;"
         offset="1"
         id="stop13" />
    </linearGradient>
    <linearGradient
       inkscape:collect="always"
       xlink:href="#linearGradient12"
       id="linearGradient13"
       x1="36.425781"
       y1="99.212891"
       x2="161.42578"
       y2="99.212891"
       gradientUnits="userSpaceOnUse"
       spreadMethod="pad" />
    <linearGradient
       inkscape:collect="always"
       xlink:href="#linearGradient26"
       id="linearGradient27"
       x1="36.425781"
       y1="99.212891"
       x2="161.42578"
       y2="99.212891"
       gradientUnits="userSpaceOnUse" />
    <linearGradient
       inkscape:collect="always"
       xlink:href="#linearGradient32"
       id="linearGradient33"
       x1="36.425781"
       y1="99.212891"
       x2="161.42578"
       y2="99.212891"
       gradientUnits="userSpaceOnUse" />
    <linearGradient
       inkscape:collect="always"
       xlink:href="#linearGradient39"
       id="linearGradient41"
       x1="36.425781"
       y1="99.212891"
       x2="161.42578"
       y2="99.212891"
       gradientUnits="userSpaceOnUse" />
    <rect
       x="18.915106"
       y="47.376154"
       width="116.49584"
       height="79.019183"
       id="rect2" />
    <rect
       x="18.915106"
       y="47.376154"
       width="116.49584"
       height="79.019183"
       id="rect3" />
    <rect
       x="18.915106"
       y="47.376154"
       width="116.49584"
       height="79.019183"
       id="rect19" />
    <rect
       x="18.915106"
       y="47.376154"
       width="116.49584"
       height="79.019183"
       id="rect22" />
  </defs>
  <sodipodi:namedview
     id="namedview2"
     pagecolor="#ffffff"
     bordercolor="#666666"
     borderopacity="1.0"
     inkscape:showpageshadow="2"
     inkscape:pageopacity="0.0"
     inkscape:pagecheckerboard="0"
     inkscape:deskcolor="#d1d1d1"
     showguides="false"
     inkscape:zoom="4"
     inkscape:cx="64.375"
     inkscape:cy="71.375"
     inkscape:window-width="2560"
     inkscape:window-height="1377"
     inkscape:window-x="-8"
     inkscape:window-y="456"
     inkscape:window-maximized="1"
     inkscape:current-layer="svg2">
    <sodipodi:guide
       position="-36.42578,225.63789"
       orientation="0,198.425"
       id="guide4"
       inkscape:locked="false" />
    <sodipodi:guide
       position="161.99922,225.63789"
       orientation="198.425,0"
       id="guide5"
       inkscape:locked="false" />
    <sodipodi:guide
       position="161.99922,27.212891"
       orientation="0,-198.425"
       id="guide6"
       inkscape:locked="false" />
    <sodipodi:guide
       position="-36.42578,27.212891"
       orientation="-198.425,0"
       id="guide7"
       inkscape:locked="false" />
    <sodipodi:guide
       position="-0.00078143977,126.42539"
       orientation="0,-1"
       id="guide8"
       inkscape:locked="false" />
    <sodipodi:guide
       position="62.499218,198.42589"
       orientation="1,0"
       id="guide9"
       inkscape:locked="false" />
    <sodipodi:guide
       position="32.767579,126.42695"
       orientation="-1,0"
       id="guide10"
       inkscape:locked="false"
       inkscape:label=""
       inkscape:color="rgb(0,134,229)" />
    <sodipodi:guide
       position="92.23047,126.42695"
       orientation="-1,0"
       id="guide11"
       inkscape:locked="false"
       inkscape:label=""
       inkscape:color="rgb(0,134,229)" />
    <sodipodi:guide
       position="19.634766,72"
       orientation="1,0"
       id="guide23"
       inkscape:locked="false" />
    <sodipodi:guide
       position="41.738282,76.15625"
       orientation="1,0"
       id="guide24"
       inkscape:locked="false" />
    <sodipodi:guide
       position="83.259766,76.692273"
       orientation="1,0"
       id="guide25"
       inkscape:locked="false" />
    <sodipodi:guide
       position="105.36328,72"
       orientation="1,0"
       id="guide26"
       inkscape:locked="false" />
  </sodipodi:namedview>
  <g
     id="g14"
     inkscape:label="Logo"
     transform="translate(-36.425781,-27.212891)">
    <path
       id="path1"
       style="display:none;fill:#ff7f2f;fill-opacity:1"
       inkscape:label="innerhexorange"
       d="m 98.925781,27.212891 -62.5,36 v 71.999999 l 62.5,36 62.499999,-36 V 63.212891 Z" />
    <path
       id="path7"
       style="display:none;fill:#00bd52;fill-opacity:1"
       inkscape:label="innerhexgreen"
       d="m 98.925781,27.212891 -62.5,36 v 71.999999 l 62.5,36 62.499999,-36 V 63.212891 Z" />
    <path
       id="path8"
       style="display:none;fill:#6400fb;fill-opacity:1"
       inkscape:label="innerhexpurple"
       d="m 98.925781,27.212891 -62.5,36 v 71.999999 l 62.5,36 62.499999,-36 V 63.212891 Z" />
    <path
       id="path9"
       style="display:none;fill:#ffde00;fill-opacity:1"
       inkscape:label="innerhexyellow"
       d="m 98.925781,27.212891 -62.5,36 v 71.999999 l 62.5,36 62.499999,-36 V 63.212891 Z" />
    <path
       id="path10"
       style="display:none;fill:#07c0f8;fill-opacity:1"
       inkscape:label="innerhexcyan"
       d="m 98.925781,27.212891 -62.5,36 v 71.999999 l 62.5,36 62.499999,-36 V 63.212891 Z" />
    <path
       id="path11"
       style="display:inline;fill:#d02f3a;fill-opacity:1"
       inkscape:label="innerhexclaret"
       d="m 98.925781,27.212891 -62.5,36 v 71.999999 l 62.5,36 62.499999,-36 V 63.212891 Z" />
    <path
       id="path49"
       style="display:none;fill:#282828;fill-opacity:1"
       inkscape:label="innerhexdarkgrey"
       d="m 98.925781,27.212891 -62.5,36 v 71.999999 l 62.5,36 62.499999,-36 V 63.212891 Z" />
    <path
       id="path12"
       style="display:none;fill:url(#linearGradient13)"
       inkscape:label="innerhexpride"
       d="m 98.925781,27.212891 -62.5,36 v 71.999999 l 62.5,36 62.499999,-36 V 63.212891 Z" />
    <path
       id="path26"
       style="display:none;fill:url(#linearGradient27)"
       inkscape:label="innerhexbi"
       d="m 98.925781,27.212891 -62.5,36 v 71.999999 l 62.5,36 62.499999,-36 V 63.212891 Z" />
    <path
       id="path32"
       style="display:none;fill:url(#linearGradient33)"
       inkscape:label="innerhexnb"
       d="m 98.925781,27.212891 -62.5,36 v 71.999999 l 62.5,36 62.499999,-36 V 63.212891 Z" />
    <path
       id="path39"
       style="display:none;fill:url(#linearGradient41)"
       inkscape:label="innerhextrans"
       d="m 98.925781,27.212891 -62.5,36 v 71.999999 l 62.5,36 62.499999,-36 V 63.212891 Z" />
    <path
       id="path2"
       style="display:none;fill:#00b4b4;fill-opacity:1"
       inkscape:label="innerhexteal"
       d="m 98.925781,27.212891 -62.5,36 v 71.999999 l 62.5,36 62.499999,-36 V 63.212891 Z" />
  </g>
  <g
     id="g22"
     inkscape:label="Overlay"
     transform="translate(-36.425781,-27.212891)"
     style="display:inline">
    <path
       style="baseline-shift:baseline;display:inline;overflow:visible;opacity:1;fill:#ffffff;fill-opacity:0.80000001;stroke-linecap:square;paint-order:stroke fill markers;enable-background:accumulate;stop-color:#000000;stop-opacity:1;stroke-width:0.99966222;stroke-dasharray:none"
       d="M 98.923828,29.982422 38.970703,64.597656 v 69.228514 l 59.955078,34.61524 59.953129,-34.61524 V 64.597656 Z m 0,6 54.759762,31.615234 V 130.82812 L 98.925781,162.44141 44.166016,130.82812 V 67.597656 Z"
       id="path19"
       transform="matrix(0.96220684,0,0,0.96244328,3.7386809,3.7260963)" />
    <g
       id="g21"
       transform="matrix(1.7058035,0,0,1.7058035,-3.3836802,-21.73097)"
       style="stroke-width:0.586234;fill:#ffffff;fill-opacity:0.80000001">
      <path
         id="path27"
         style="display:inline;stroke-width:0.586234;fill:#ffffff;fill-opacity:0.80000001;opacity:1;baseline-shift:baseline;overflow:visible;vector-effect:none;stroke-linecap:round;paint-order:stroke fill markers;enable-background:accumulate;stop-color:#000000;stop-opacity:1"
         d="M 52.635619 45.957833 L 52.635619 79.085779 C 52.635619 82.776146 53.016632 84.310298 54.728658 86.326685 C 56.459706 88.343071 57.575943 88.875429 60.714657 88.875429 L 76.294512 88.875429 L 76.294512 86.219056 L 73.162969 86.219056 L 66.323954 78.644958 C 66.638853 78.235219 66.826604 77.722986 66.826604 77.167924 C 66.826604 75.829028 65.735835 74.735968 64.396939 74.735968 C 63.930077 74.735968 63.492535 74.869097 63.121422 75.09893 L 56.091194 67.314155 L 56.091194 45.957833 L 52.635619 45.957833 z M 56.091194 68.626311 L 62.468779 75.688599 C 62.153064 76.098883 61.964984 76.61245 61.964984 77.167924 C 61.964984 78.506819 63.058044 79.597589 64.396939 79.597589 C 64.863772 79.597589 65.300522 79.465269 65.671311 79.235772 L 71.976761 86.219056 L 61.227611 86.219056 C 59.534607 86.219056 58.250906 85.619842 57.375871 84.421424 C 56.519858 83.223005 56.091194 81.44457 56.091194 79.085779 L 56.091194 68.626311 z " />
    </g>
    <path
       id="path24"
       style="font-size:48px;line-height:1.25;font-family:Monospace;-inkscape-font-specification:Monospace;text-orientation:upright;white-space:pre;display:inline;fill:#ffffff;stroke-width:0.999997;fill-opacity:0.80000001"
       d="m 131.38769,88.622071 c -1.25548,0 -2.55393,0.142395 -3.89502,0.427734 -1.32682,0.27107 -2.71811,0.684314 -4.17334,1.240722 v 3.9375 c 1.29829,-0.741877 2.63234,-1.305223 4.00196,-1.690429 1.36962,-0.385206 2.72532,-0.577148 4.0664,-0.577148 2.09724,0 3.62322,0.434896 4.5791,1.305175 0.95589,0.856014 1.44181,2.239604 1.45606,4.151367 v 0.621094 h -5.28662 c -3.46685,0 -6.09935,0.691796 -7.89697,2.075684 -1.78336,1.38389 -2.67481,3.40973 -2.67481,6.07764 0,2.31123 0.7274,4.15908 2.18262,5.54297 1.45522,1.36962 3.40362,2.05371 5.84326,2.05371 1.82616,0 3.37381,-0.33434 4.64356,-1.00489 1.28402,-0.68481 2.34721,-1.74177 3.18896,-3.16845 v 3.55371 h 3.95801 V 99.492676 c 0,-2.097232 -0.11304,-3.666525 -0.34131,-4.708008 -0.22827,-1.055749 -0.61362,-1.939488 -1.15576,-2.652832 -0.87028,-1.169885 -2.01239,-2.047382 -3.42481,-2.632324 -1.39815,-0.584942 -3.08819,-0.877441 -5.07129,-0.877441 z m 1.04883,12.498049 h 1.30518 3.68115 v 0.87597 c -0.0143,2.65364 -0.64258,4.73674 -1.88379,6.24903 -1.24122,1.49802 -2.9452,2.24707 -5.11377,2.24707 -1.54082,0 -2.74642,-0.3993 -3.6167,-1.19824 -0.87028,-0.79895 -1.30664,-1.91794 -1.30664,-3.35889 0,-1.59789 0.57876,-2.79725 1.73438,-3.59619 1.16988,-0.81321 2.90322,-1.21875 5.20019,-1.21875 z" />
    <path
       style="font-size:48px;line-height:1.25;font-family:Monospace;-inkscape-font-specification:Monospace;text-orientation:upright;white-space:pre;display:inline;fill:#ffffff;stroke-width:0.999997;fill-opacity:0.80000001"
       d="m 75.538852,98.212502 v 14.851828 h -3.95906 V 98.212502 c 0,-2.154299 -0.378073,-3.737923 -1.134217,-4.750872 -0.756145,-1.012948 -1.940296,-1.519423 -3.552454,-1.519423 -1.840428,0 -3.259983,0.656277 -4.258665,1.96883 -0.984414,1.298287 -1.476622,3.167248 -1.476622,5.606885 v 13.546408 h -3.93766 V 89.095963 h 3.93766 v 3.595255 c 0.699077,-1.369621 1.647825,-2.403969 2.846243,-3.103046 1.198418,-0.713345 2.617973,-1.070017 4.258665,-1.070017 2.439636,0 4.258664,0.806079 5.457083,2.418236 1.212685,1.597892 1.819027,4.023261 1.819027,7.276111 z"
       id="path20" />
  </g>
</svg>
